<mxfile host="app.diagrams.net" modified="2023-10-25T05:26:06.026Z" agent="Mozilla/5.0 (Windows NT 10.0; Win64; x64) AppleWebKit/537.36 (KHTML, like Gecko) Chrome/118.0.0.0 Safari/537.36" version="21.7.5" etag="kp6YtXpeiIInDTwKhD5T" type="github">
  <diagram name="第 1 页" id="ksoOqVq-5y_1xiE1C7xc">
    <mxGraphModel>
      <root>
        <mxCell id="0" />
        <mxCell id="1" parent="0" />
      </root>
    </mxGraphModel>
  </diagram>
</mxfile>
